<svg width="41" height="41" viewBox="0 0 41 41" fill="none" xmlns="http://www.w3.org/2000/svg">
<path fill-rule="evenodd" clip-rule="evenodd" d="M18.0931 0.0478524C11.9871 0.674182 6.59192 3.95094 3.22403 9.0786C-1.81015 16.7432 -0.862953 27.1674 5.46433 33.7338C6.03223 34.3231 6.24609 34.4375 6.6139 34.3486C6.91052 34.277 9.89347 31.2867 9.93422 31.0201C9.9896 30.6579 9.85052 30.3847 9.32924 29.8322C8.80218 29.2735 7.88502 28.0891 7.88502 27.9672C7.88502 27.9304 8.21848 27.7041 8.6261 27.4642C9.03372 27.2243 9.40332 26.9605 9.44744 26.878C9.6067 26.5806 9.54295 26.1736 9.29905 25.9296C8.97482 25.6054 8.67436 25.6266 8.0011 26.0211C6.95057 26.6367 7.07439 26.6356 6.78935 26.0319C6.19282 24.7684 5.65465 22.7505 5.56125 21.4272L5.51604 20.7865L6.47278 20.7602C7.40989 20.7343 7.43344 20.7293 7.6182 20.5143C7.74758 20.3638 7.80679 20.1993 7.80679 19.9907C7.80679 19.7821 7.74758 19.6176 7.6182 19.4671C7.43344 19.2521 7.40989 19.247 6.47278 19.2212L5.51604 19.1948L5.56125 18.5542C5.65535 17.2215 6.17554 15.2785 6.77386 14.0253L7.06368 13.4182L7.80679 13.8489C8.68657 14.3586 8.95557 14.3952 9.29905 14.0518C9.54295 13.8078 9.6067 13.4008 9.44744 13.1033C9.40332 13.0209 9.03372 12.7571 8.6261 12.5172C8.21848 12.2773 7.88502 12.0607 7.88502 12.0357C7.88502 11.8567 8.95213 10.5537 9.76236 9.74349C10.5726 8.93326 11.8756 7.86614 12.0546 7.86614C12.0796 7.86614 12.2962 8.19961 12.5361 8.60723C12.776 9.01485 13.0397 9.38445 13.1222 9.42857C13.4197 9.58783 13.8267 9.52408 14.0706 9.28018C14.414 8.9367 14.3775 8.66769 13.8677 7.78792L13.4371 7.0448L14.0442 6.75499C15.2974 6.15666 17.2404 5.63648 18.5731 5.54238L19.2137 5.49717L19.2401 6.45391C19.2659 7.39102 19.271 7.41456 19.4859 7.59933C19.7836 7.85511 20.2355 7.85511 20.5332 7.59933C20.7481 7.41456 20.7532 7.39102 20.779 6.45391L20.8054 5.49717L21.446 5.54238C22.7787 5.63648 24.7217 6.15666 25.9749 6.75499L26.582 7.0448L26.1514 7.78792C25.6416 8.66769 25.6051 8.9367 25.9485 9.28018C26.1924 9.52408 26.5994 9.58783 26.8969 9.42857C26.9794 9.38445 27.2431 9.01485 27.483 8.60723C27.7229 8.19961 27.9395 7.86614 27.9645 7.86614C28.1436 7.86614 29.4465 8.93326 30.2567 9.74349C31.067 10.5537 32.1341 11.8567 32.1341 12.0357C32.1341 12.0607 31.8006 12.2773 31.393 12.5172C30.9854 12.7571 30.6158 13.0209 30.5717 13.1033C30.4124 13.4008 30.4762 13.8078 30.7201 14.0518C31.0624 14.3941 31.3321 14.358 32.2123 13.8522L32.9554 13.4252L33.2452 14.0288C33.8413 15.2701 34.3637 17.2195 34.4579 18.5542L34.5031 19.1948L33.5463 19.2212C32.6092 19.247 32.5857 19.2521 32.4009 19.4671C32.1451 19.7647 32.1451 20.2167 32.4009 20.5143C32.5857 20.7293 32.6092 20.7343 33.5463 20.7602L34.5031 20.7865L34.4579 21.4272C34.4094 22.1131 34.1188 23.6666 34.0201 23.767C33.9873 23.8004 33.7167 23.7681 33.4188 23.6952C32.6968 23.5187 30.9065 23.5164 30.1321 23.6912C28.4427 24.0722 27.0202 24.8653 25.8735 26.0655C24.9943 26.9857 24.4746 27.8062 24.0717 28.9103C23.1906 31.3244 23.4316 33.833 24.7576 36.0511C25.2258 36.8343 26.3145 37.9892 27.0902 38.5254C31.2326 41.3891 36.9159 39.9341 39.1429 35.4397C39.3848 34.9514 39.6589 34.2409 39.7766 33.797C39.9604 33.104 39.9839 32.8721 39.9823 31.7632C39.9806 30.6622 39.9554 30.4175 39.7733 29.7294C39.6537 29.2782 39.3822 28.5768 39.1316 28.0718L38.6971 27.1964L38.9404 26.5073C40.5821 21.8572 40.3357 16.3434 38.2826 11.7921C36.5331 7.91378 33.5229 4.62271 29.793 2.51031C27.782 1.37146 25.2423 0.517111 22.7865 0.153531C21.8299 0.0118699 19.0534 -0.0506301 18.0931 0.0478524ZM22.7082 1.72378C26.6664 2.33423 30.2017 4.12749 33.0372 6.96298C34.5117 8.43748 35.5859 9.92129 36.5178 11.7712C37.3868 13.496 37.982 15.3834 38.2837 17.3702C38.4801 18.6631 38.4824 21.3118 38.2884 22.572C38.1382 23.548 37.9295 24.4958 37.6802 25.3348L37.5216 25.8683L37.1747 25.5484C36.8605 25.2588 35.7706 24.5012 35.5738 24.4356C35.523 24.4187 35.5525 24.1725 35.6539 23.7649C36.4297 20.6478 36.1826 17.1282 34.9742 14.0849C33.2334 9.70055 29.5652 6.21721 25.1389 4.74529C21.0602 3.38898 16.78 3.67238 12.9304 5.55372C9.07831 7.43623 6.11444 10.8245 4.74993 14.9058C3.00649 20.1203 4.05765 25.887 7.5284 30.1485L8.06086 30.8024L7.25047 31.6156C6.80468 32.0629 6.41294 32.4198 6.37985 32.4088C6.23999 32.3622 5.16318 30.9886 4.58761 30.1227C3.1329 27.9343 2.13431 25.3041 1.73131 22.5996C1.53919 21.3098 1.5413 18.5808 1.73553 17.3311C2.83605 10.249 7.63775 4.61755 14.4781 2.38664C15.6427 2.00679 16.7782 1.7833 18.6015 1.57515C19.1849 1.50851 21.9649 1.60918 22.7082 1.72378ZM19.4891 9.61661L19.2728 9.80271L18.5181 15.4247L17.7633 21.0467L17.2633 21.5551C16.4654 22.3666 16.0984 23.2289 16.0984 24.2929C16.0984 26.1379 17.3713 27.7261 19.1731 28.1293C19.744 28.257 20.7969 28.1893 21.3525 27.9891C22.8677 27.443 23.9207 25.9276 23.9207 24.2929C23.9207 23.2289 23.5537 22.3666 22.7558 21.5551L22.2558 21.0467L21.501 15.4247L20.7463 9.80271L20.53 9.61661C20.3824 9.48974 20.2171 9.4306 20.0096 9.4306C19.802 9.4306 19.6367 9.48974 19.4891 9.61661ZM20.3086 18.3284C20.4474 19.3933 20.5601 20.2997 20.559 20.3427C20.5579 20.3872 20.3212 20.4209 20.0096 20.4209C19.6979 20.4209 19.4612 20.3872 19.4601 20.3427C19.4543 20.1032 19.9704 16.3924 20.0096 16.3924C20.0353 16.3924 20.1699 17.2636 20.3086 18.3284ZM21.0606 22.2142C22.0895 22.7176 22.5778 23.8821 22.2428 25.034C22.0706 25.6264 21.4178 26.3109 20.8365 26.5085C19.9205 26.8201 19.0355 26.6156 18.3543 25.9351C17.868 25.4494 17.6625 24.9624 17.6633 24.2983C17.6654 22.5607 19.486 21.4438 21.0606 22.2142ZM33.4295 25.3105C36.8696 26.1873 39.0362 29.6362 38.3217 33.0981C38.0348 34.488 37.4206 35.5884 36.3725 36.5897C33.7783 39.0682 29.8032 39.0631 27.1773 36.5781C26.3059 35.7533 25.6484 34.6306 25.3196 33.4059C25.0862 32.5361 25.0826 31.002 25.3121 30.1524C26.0266 27.5063 28.1624 25.5666 30.8074 25.1614C31.5063 25.0544 32.6882 25.1215 33.4295 25.3105ZM29.7349 26.7537C29.4359 26.8837 29.3181 27.0827 29.3181 27.4575C29.3181 27.6846 29.483 27.985 30.1828 29.0318C30.9824 30.2281 31.0457 30.3501 31.0237 30.6532C31.0001 30.9778 30.9966 30.9812 30.6721 31.0048C30.369 31.0268 30.247 30.9635 29.0507 30.1639C27.9704 29.4418 27.708 29.2992 27.4598 29.2992C27.0838 29.2992 26.851 29.4613 26.7388 29.8012C26.5808 30.28 26.7529 30.5149 27.7405 31.1679C28.2194 31.4845 28.5957 31.7688 28.5767 31.7995C28.5577 31.8302 28.1717 32.0987 27.719 32.396C26.7694 33.0196 26.5874 33.2663 26.7386 33.7245C26.7883 33.875 26.9183 34.0567 27.0276 34.1283C27.4347 34.395 27.6599 34.3144 28.9998 33.4215C30.178 32.6365 30.2802 32.5846 30.6475 32.5846H31.039V32.896C31.039 33.1617 30.9124 33.3982 30.1785 34.5045C29.4446 35.6108 29.3181 35.8474 29.3181 36.1131C29.3181 36.6543 29.8472 37.0106 30.3447 36.8045C30.5189 36.7324 30.7508 36.4572 31.178 35.8158C31.5036 35.3269 31.7944 34.9543 31.8244 34.9878C31.8544 35.0212 32.127 35.4215 32.4303 35.8773C33.0401 36.7938 33.2703 36.965 33.7193 36.8362C34.0455 36.7426 34.3515 36.3018 34.2934 36.0094C34.2701 35.8925 33.8803 35.2415 33.4273 34.5627C32.6695 33.4275 32.6034 33.2986 32.6034 32.9565V32.5846H32.9754C33.3174 32.5846 33.4464 32.6507 34.5815 33.4084C35.2603 33.8615 35.9114 34.2512 36.0283 34.2745C36.3206 34.3327 36.7615 34.0266 36.8551 33.7004C36.9838 33.2514 36.8127 33.0212 35.8962 32.4114C35.4404 32.1082 35.0401 31.8355 35.0067 31.8055C34.9732 31.7756 35.3458 31.4847 35.8347 31.1592C36.4761 30.7319 36.7513 30.5 36.8234 30.3258C37.0295 29.8284 36.6731 29.2992 36.132 29.2992C35.8663 29.2992 35.6297 29.4257 34.5234 30.1596C33.4171 30.8935 33.1806 31.0201 32.9149 31.0201H32.6034V30.6286C32.6034 30.2613 32.6554 30.1591 33.4404 28.9809C34.3332 27.641 34.4139 27.4158 34.1472 27.0088C34.0756 26.8995 33.8939 26.7694 33.7434 26.7197C33.2851 26.5685 33.0384 26.7505 32.4148 27.7001C32.1176 28.1528 31.8491 28.5388 31.8184 28.5578C31.7876 28.5768 31.5034 28.2006 31.1867 27.7217C30.7592 27.075 30.5459 26.8238 30.3582 26.7453C30.0533 26.6179 30.0469 26.618 29.7349 26.7537Z" fill="#003154"/>
</svg>
