<svg width="40" height="41" viewBox="0 0 40 41" fill="none" xmlns="http://www.w3.org/2000/svg">
<path fill-rule="evenodd" clip-rule="evenodd" d="M16.6156 0.0519112C12.1057 0.551331 8.22618 2.43309 5.15669 5.61014C2.87265 7.97427 1.3424 10.7054 0.545442 13.8404C0.112664 15.5429 -0.00215951 16.5167 3.05806e-05 18.4665C0.00222068 20.3981 0.109692 21.3027 0.539185 23.0031C2.34273 30.1437 8.32872 35.5331 15.758 36.7049C17.0095 36.9024 19.8209 36.9017 21.0349 36.7036C22.0684 36.5351 23.2847 36.2462 24.0324 35.9919L24.5802 35.8056L24.8773 36.2875C25.2771 36.9358 26.3492 38.0345 27.0646 38.529C31.2011 41.3886 36.8857 39.9308 39.111 35.4397C39.3529 34.9515 39.627 34.241 39.7447 33.7971C39.9285 33.1041 39.952 32.8723 39.9503 31.7635C39.9487 30.6692 39.923 30.4166 39.7463 29.7528C39.4992 28.8248 39.0522 27.8527 38.5162 27.0774C38.0216 26.3619 36.923 25.2899 36.2744 24.8899L35.7922 24.5925L35.9462 24.1498C36.1967 23.4301 36.5502 21.9051 36.6914 20.9349C36.8549 19.8119 36.875 17.2205 36.7286 16.159C35.8631 9.88591 32.1164 4.60418 26.6162 1.90325C24.8005 1.01164 22.9695 0.436507 21.0732 0.162198C20.0106 0.00842216 17.5564 -0.0522748 16.6156 0.0519112ZM19.9902 1.61267C24.5712 2.06703 28.757 4.33738 31.5997 7.9095C35.0002 12.1828 36.1382 17.804 34.6555 23.0031C34.3735 23.9915 34.4488 23.9483 33.4324 23.7057C32.4993 23.483 30.795 23.5121 29.8286 23.7672C27.5176 24.3771 25.8517 25.6427 24.5425 27.783C24.4594 27.9189 24.4068 27.8868 23.8882 27.3833C22.376 25.9151 21.2952 24.0744 20.7509 22.0403L20.577 21.3905L20.9002 21.0673L21.2234 20.7442L23.8276 21.1898C26.6302 21.6692 27.4034 21.7266 28.234 21.5162C30.0298 21.0617 31.4867 19.5143 31.8303 17.697C31.9993 16.8032 31.9951 13.0669 31.8245 12.4924C31.5832 11.6801 30.7682 11.0765 29.9126 11.0765C29.2856 11.0765 28.7758 11.3396 28.3049 11.9063C26.5234 14.0503 24.5138 15.3934 22.104 16.0506L21.3742 16.2496L21.0587 15.911L20.7431 15.5724L21.1847 12.9521C21.6573 10.1479 21.7104 9.42372 21.503 8.60791C21.2182 7.48752 20.4098 6.3439 19.4545 5.70979C19.209 5.54686 18.7073 5.30579 18.3398 5.17415L17.6715 4.93481H15.0903H12.5091L12.0908 5.16649C11.1726 5.67514 10.8057 6.80562 11.2496 7.75893C11.3891 8.05835 11.5993 8.29519 12.0897 8.70505C12.9923 9.45938 13.9108 10.4493 14.4431 11.2414C15.0162 12.0943 15.6939 13.5089 15.9373 14.36C16.2663 15.5101 16.2688 15.4542 15.8745 15.7901L15.5273 16.0859L12.9623 15.6417C10.1679 15.1577 9.42675 15.1047 8.56885 15.3274C7.28491 15.6607 5.97453 16.7221 5.40432 17.8904C4.92329 18.8762 4.87127 19.2967 4.89833 21.9816C4.92086 24.219 4.93025 24.348 5.09114 24.6457C5.48012 25.3652 6.08364 25.7338 6.87912 25.7379C7.63752 25.7418 8.06333 25.5154 8.64738 24.798C10.141 22.9634 12.1082 21.596 14.1908 20.9451C15.4494 20.5517 15.4058 20.5518 15.7647 20.9406L16.0767 21.2786L15.6307 23.8616C15.1423 26.6892 15.0918 27.412 15.3215 28.2828C15.7467 29.8945 17.0555 31.234 18.7275 31.7686C19.082 31.882 19.5383 31.9121 21.3235 31.9398L23.4893 31.9736L23.5381 32.416C23.602 32.9949 23.7791 33.8978 23.8816 34.1669L23.9629 34.3803L23.3202 34.5752C21.6235 35.0898 20.4033 35.2645 18.4537 35.2717C16.7127 35.2781 15.7337 35.1626 14.2186 34.772C8.64817 33.3356 4.16676 29.1378 2.38379 23.6858C0.636957 18.3444 1.58214 12.716 4.98602 8.18944C5.63608 7.32498 7.01709 5.90408 7.83251 5.26074C11.3071 2.51944 15.7353 1.19068 19.9902 1.61267ZM17.5964 6.58066C18.5601 6.8301 19.3287 7.47805 19.7711 8.41416C20.1552 9.22708 20.1463 9.81027 19.7112 12.3264C19.5141 13.4664 19.3341 14.4884 19.3113 14.5975C19.2701 14.7947 19.2653 14.7958 18.481 14.7873L17.6922 14.7787L17.4417 13.9632C16.8577 12.0609 15.995 10.5065 14.7198 9.05828C14.2738 8.55183 13.952 8.24709 12.9123 7.34665C12.5991 7.07539 12.548 6.83276 12.7559 6.60311C12.8753 6.47124 13.051 6.46005 15.0078 6.46005C16.6667 6.46005 17.2321 6.48641 17.5964 6.58066ZM30.2601 12.8131C30.3626 12.9595 30.3819 13.3046 30.3819 14.9993C30.3819 16.1806 30.3458 17.1829 30.2946 17.4262C30.0812 18.4396 29.4109 19.299 28.4755 19.7585C27.6156 20.181 27.0988 20.172 24.2937 19.6856C23.0315 19.4668 21.9897 19.2877 21.9783 19.2877C21.967 19.2877 21.988 19.1029 22.025 18.8771C22.0621 18.6513 22.0712 18.288 22.0452 18.0699L21.9981 17.6733L22.4551 17.5717C23.6132 17.314 25.1286 16.628 26.3795 15.7949C27.3256 15.1648 28.6236 13.9811 29.2985 13.133C29.6162 12.7337 29.7342 12.6392 29.9148 12.6392C30.0571 12.6392 30.1826 12.7024 30.2601 12.8131ZM19.0335 16.438C20.5362 16.8843 20.9844 18.8935 19.8167 19.9485C19.3892 20.3348 19.0079 20.4813 18.4139 20.4878C17.7823 20.4946 17.3089 20.2846 16.8618 19.7997C16.5478 19.459 16.3027 18.8574 16.3027 18.4274C16.3027 17.6202 16.9396 16.7353 17.7123 16.4685C18.2395 16.2865 18.5028 16.2804 19.0335 16.438ZM12.4309 17.1434C13.5494 17.3323 14.5362 17.5037 14.6239 17.5242C14.7721 17.559 14.7825 17.6175 14.7745 18.3596L14.7658 19.1577L14.1459 19.33C12.3476 19.83 10.7586 20.6806 9.1996 21.9783C8.60624 22.4721 8.1762 22.9223 7.26833 24.0004C7.05417 24.2546 6.81999 24.2753 6.60371 24.059C6.4551 23.9104 6.44728 23.7983 6.44728 21.8071C6.44728 19.0577 6.55561 18.6184 7.45433 17.7217C8.15375 17.0239 9.09862 16.6678 10.0062 16.7601C10.2213 16.782 11.3124 16.9545 12.4309 17.1434ZM18.7467 22.0587C19.022 22.0232 19.1258 22.0379 19.1487 22.1159C20.0765 25.2771 21.2405 27.1866 23.3733 29.0464L23.8345 29.4487L23.7342 29.9217L23.6338 30.3947H21.732C20.6339 30.3947 19.655 30.3578 19.4157 30.3074C17.6807 29.9426 16.5227 28.3049 16.7719 26.569C16.8628 25.936 17.3728 22.9168 17.4812 22.3699L17.5602 21.9715L17.9679 22.0391C18.1921 22.0762 18.5425 22.085 18.7467 22.0587ZM33.398 25.3112C36.8379 26.1879 39.0044 29.6366 38.2899 33.0983C38.003 34.4881 37.3889 35.5884 36.3408 36.5897C33.7468 39.068 29.7719 39.0629 27.1463 36.578C26.2748 35.7533 25.6174 34.6307 25.2887 33.406C25.0553 32.5363 25.0517 31.0023 25.2812 30.1527C25.9956 27.5068 28.1313 25.5672 30.776 25.1621C31.4749 25.055 32.6568 25.1222 33.398 25.3112ZM29.7037 26.7543C29.4047 26.8842 29.2868 27.0832 29.2868 27.4581C29.2868 27.6851 29.4518 27.9855 30.1515 29.0323C30.9511 30.2284 31.0144 30.3505 30.9924 30.6536C30.9688 30.9781 30.9653 30.9815 30.6408 31.0051C30.3377 31.0271 30.2157 30.9638 29.0195 30.1643C27.9393 29.4422 27.6769 29.2996 27.4287 29.2996C27.0527 29.2996 26.8199 29.4617 26.7078 29.8015C26.5498 30.2804 26.7218 30.5152 27.7094 31.1682C28.1883 31.4848 28.5645 31.769 28.5455 31.7998C28.5265 31.8305 28.1406 32.0989 27.6878 32.3962C26.7384 33.0197 26.5563 33.2664 26.7075 33.7246C26.7572 33.8751 26.8873 34.0568 26.9965 34.1284C27.4036 34.3951 27.6288 34.3145 28.9686 33.4217C30.1467 32.6367 30.2489 32.5848 30.6161 32.5848H31.0076V32.8962C31.0076 33.1618 30.8811 33.3984 30.1472 34.5046C29.4133 35.6108 29.2868 35.8474 29.2868 36.1131C29.2868 36.6542 29.816 37.0105 30.3134 36.8044C30.4876 36.7323 30.7195 36.4572 31.1467 35.8158C31.4722 35.3269 31.7631 34.9544 31.793 34.9878C31.823 35.0212 32.0956 35.4216 32.3989 35.8773C33.0086 36.7937 33.2388 36.9649 33.6878 36.8361C34.0139 36.7426 34.32 36.3017 34.2618 36.0094C34.2386 35.8925 33.8488 35.2415 33.3958 34.5627C32.6381 33.4276 32.572 33.2987 32.572 32.9567V32.5848H32.9439C33.286 32.5848 33.4149 32.6508 34.5499 33.4085C35.2287 33.8616 35.8797 34.2513 35.9966 34.2746C36.289 34.3328 36.7298 34.0267 36.8233 33.7005C36.9521 33.2516 36.781 33.0214 35.8646 32.4117C35.4088 32.1084 35.0085 31.8357 34.9751 31.8058C34.9416 31.7758 35.3141 31.485 35.803 31.1595C36.4444 30.7322 36.7196 30.5003 36.7917 30.3261C36.9978 29.8288 36.6414 29.2996 36.1003 29.2996C35.8346 29.2996 35.5981 29.4261 34.4918 30.16C33.3856 30.8938 33.1491 31.0204 32.8834 31.0204H32.572V30.6289C32.572 30.2617 32.6239 30.1595 33.4089 28.9813C34.3017 27.6416 34.3823 27.4164 34.1156 27.0093C34.044 26.9 33.8623 26.77 33.7118 26.7203C33.2536 26.5691 33.007 26.7511 32.3834 27.7006C32.0862 28.1533 31.8177 28.5393 31.787 28.5583C31.7562 28.5773 31.472 28.201 31.1554 27.7222C30.7279 27.0756 30.5146 26.8243 30.3269 26.7459C30.022 26.6185 30.0156 26.6185 29.7037 26.7543Z" fill="#003154"/>
</svg>
