<svg width="40" height="41" viewBox="0 0 40 41" fill="none" xmlns="http://www.w3.org/2000/svg">
<path fill-rule="evenodd" clip-rule="evenodd" d="M16.8892 0.0988546C16.6218 0.227638 15.5067 1.96484 14.8325 3.30334C14.056 4.84475 13.9459 5.83161 14.4387 6.83271C14.7582 7.48179 15.2916 8.01185 15.9355 8.32024C16.4046 8.54497 16.5068 8.56366 17.2647 8.56366C17.9904 8.56366 18.1373 8.5395 18.5295 8.35567C19.6039 7.85203 20.3924 6.66569 20.3924 5.55325C20.3924 4.78321 19.7112 3.21162 18.6075 1.43532C17.7555 0.0640589 17.4519 -0.172082 16.8892 0.0988546ZM17.8282 3.188C18.4212 4.22703 18.8286 5.18856 18.8286 5.54926C18.8286 5.85515 18.6393 6.31562 18.4143 6.55677C17.8947 7.11381 16.912 7.2078 16.3489 6.75428C15.6155 6.16362 15.5282 5.49961 16.0413 4.41453C16.4142 3.62604 17.1784 2.26916 17.2497 2.26924C17.2794 2.26932 17.5398 2.68272 17.8282 3.188ZM29.1209 5.56912C28.6089 5.75545 26.6085 9.30727 26.3743 10.446C25.9529 12.495 27.8016 14.4128 29.8763 14.0787C31.6428 13.7942 32.8223 12.1441 32.473 10.446C32.3278 9.74014 31.4137 7.89206 30.5708 6.60064C30.0748 5.84061 29.9025 5.63652 29.6963 5.56459C29.4008 5.46161 29.4167 5.46145 29.1209 5.56912ZM9.50321 6.34815C9.26175 6.43635 8.37724 7.66429 6.80901 10.0884C2.53688 16.6925 0.180164 21.6793 0.00978288 24.4758C-0.0443263 25.3651 0.130434 26.6902 0.424828 27.6221C1.37948 30.644 3.69804 33.0108 6.69672 34.0245C7.7793 34.3904 8.56764 34.5106 9.9299 34.5174L11.1572 34.5236L11.552 35.1805C12.1025 36.0963 12.4859 36.573 13.2794 37.3281C14.6486 38.6311 16.2152 39.4476 18.1249 39.8536C19.0335 40.0468 20.9604 40.0492 21.8514 39.8582C23.8418 39.4316 25.3684 38.6269 26.8067 37.2464L27.5634 36.5202L27.987 36.7495C28.2199 36.8757 28.7792 37.1022 29.2298 37.2529C31.6635 38.0662 34.318 37.6811 36.4534 36.2048C38.0485 35.1022 39.2453 33.3885 39.7586 31.4722C39.9438 30.7806 39.9675 30.5503 39.9675 29.441C39.9675 28.3318 39.9438 28.1015 39.7586 27.4098C38.9746 24.4831 36.714 22.2236 33.8007 21.4551C33.1283 21.2777 32.8531 21.2483 31.8085 21.2421C30.7749 21.2359 30.4938 21.2617 29.8981 21.4174C29.0868 21.6295 28.1505 22.0099 27.5877 22.3562C27.3706 22.4899 27.1789 22.5992 27.1618 22.5992C27.1448 22.5992 26.9305 22.2241 26.6857 21.7656C26.075 20.6221 25.0799 18.9281 24.006 17.2039C22.7595 15.2027 20.6393 12.0607 20.4424 11.9228C20.3528 11.86 20.1419 11.8086 19.9738 11.8086C19.5535 11.8086 19.4328 11.9522 17.8556 14.3279L16.5308 16.3235L15.6823 14.8398C14.5924 12.9338 13.1853 10.6892 11.6063 8.33799C10.5981 6.83662 10.302 6.44941 10.0968 6.36364C9.80527 6.24189 9.7951 6.24158 9.50321 6.34815ZM30.0853 8.83733C31.0062 10.4852 31.1482 11.0771 30.7816 11.7411C30.5718 12.1212 30.2089 12.3957 29.7544 12.5181C28.7128 12.7986 27.6282 11.7274 27.9042 10.6908C28.0143 10.2768 28.5595 9.14408 29.0383 8.3344C29.4662 7.61081 29.3754 7.5671 30.0853 8.83733ZM10.9122 10.108C12.6402 12.7354 14.4468 15.7267 15.343 17.4446L15.5706 17.8807L15.1001 18.6566C13.0171 22.0921 11.4505 25.2453 10.7516 27.4094C10.2888 28.8422 10.2008 29.425 10.251 30.7268C10.2751 31.3528 10.3509 32.09 10.4193 32.3651C10.4877 32.6401 10.5222 32.8864 10.4959 32.9124C10.3976 33.0101 8.8338 32.9403 8.19442 32.8097C6.64301 32.4927 5.32726 31.8082 4.17056 30.7163C2.98555 29.5977 2.21372 28.3058 1.80665 26.7595C1.64385 26.141 1.60507 25.8053 1.59717 24.945C1.58865 24.0133 1.61281 23.7986 1.80336 23.1164C2.59483 20.2817 5.03709 15.642 8.52721 10.3425C9.21405 9.29961 9.7858 8.44637 9.79768 8.44637C9.80957 8.44637 10.3111 9.19412 10.9122 10.108ZM21.0773 15.5423C22.8648 18.2599 24.0307 20.1771 25.2473 22.3993L25.9299 23.646L25.5265 24.0924C24.7223 24.9823 24.0076 26.4267 23.7037 27.7766C23.5073 28.6487 23.5247 30.3482 23.7388 31.2166C24.1161 32.7473 24.7439 33.9426 25.7191 34.9867L26.281 35.5884L25.8975 35.9819C24.2668 37.6553 21.8756 38.581 19.5323 38.4457C17.4899 38.3278 15.6842 37.5155 14.208 36.0504C12.9755 34.8273 12.2558 33.4847 11.9052 31.7543C11.7116 30.7988 11.7777 29.3652 12.0588 28.4245C12.7439 26.132 14.629 22.367 17.0503 18.455C18.0586 16.8262 19.9313 13.998 20.0016 13.998C20.0346 13.998 20.5187 14.6929 21.0773 15.5423ZM33.3333 22.9487C35.0064 23.3888 36.392 24.3674 37.3239 25.7673C39.6013 29.1879 38.292 33.7511 34.5331 35.494C33.5214 35.9631 32.957 36.0801 31.7304 36.0748C30.8173 36.071 30.5802 36.0419 29.9749 35.8596C27.6508 35.1599 25.9185 33.3872 25.3075 31.0831C25.0727 30.1974 25.0736 28.6781 25.3095 27.799C26.0114 25.184 28.0525 23.3259 30.7655 22.8321C31.2989 22.735 32.7758 22.8021 33.3333 22.9487ZM29.6798 24.4413C29.4119 24.5867 29.3064 24.7813 29.3064 25.1304C29.3064 25.3482 29.4823 25.6694 30.1665 26.7008C30.9001 27.8067 31.0266 28.0431 31.0266 28.3087V28.62H30.6353C30.2684 28.62 30.166 28.5681 29.0004 27.7915C27.6719 26.9063 27.4172 26.8146 27.0162 27.0773C26.9073 27.1486 26.7776 27.3301 26.7279 27.4805C26.5768 27.9386 26.7587 28.1852 27.7079 28.8085C28.1605 29.1057 28.5482 29.3772 28.5697 29.4118C28.591 29.4464 28.2043 29.7428 27.7103 30.0704C26.9842 30.5519 26.7956 30.716 26.7261 30.9265C26.621 31.2449 26.7751 31.6848 27.0416 31.8275C27.4576 32.05 27.6954 31.9585 29.068 31.0466C30.2514 30.2603 30.4125 30.1758 30.6849 30.1982C30.9797 30.2223 30.9882 30.2314 31.0114 30.5506C31.0333 30.8536 30.9701 30.9756 30.1708 32.1714C29.4713 33.2178 29.3064 33.5181 29.3064 33.7451C29.3064 34.1288 29.4259 34.3206 29.7494 34.4558C30.2524 34.6659 30.4809 34.5162 31.118 33.5587C31.4231 33.1002 31.6999 32.695 31.7333 32.6582C31.7666 32.6214 32.0497 32.9732 32.3624 33.4401C32.6751 33.907 32.9863 34.3313 33.0539 34.383C33.4321 34.6722 33.9892 34.5157 34.2069 34.0592C34.3797 33.6968 34.3156 33.549 33.3795 32.1493C32.6408 31.0448 32.5905 30.9445 32.5905 30.5767V30.1839H32.8983C33.1591 30.1839 33.4013 30.3133 34.4817 31.0299C35.1833 31.4952 35.8419 31.898 35.9456 31.925C36.2186 31.9962 36.6271 31.7968 36.7686 31.5232C37.0402 30.9979 36.8719 30.7386 35.7987 30.0291C35.3211 29.7132 34.958 29.4299 34.9919 29.3995C35.0258 29.3692 35.4264 29.0962 35.882 28.7931C36.4772 28.397 36.7388 28.1733 36.8113 27.9982C36.9434 27.6793 36.8408 27.3186 36.5578 27.1073C36.1589 26.8094 35.9267 26.8895 34.5762 27.7909C33.4332 28.5539 33.3044 28.62 32.9623 28.62H32.5905V28.2663C32.5905 27.9481 32.6698 27.7941 33.3795 26.7328C34.3156 25.3331 34.3797 25.1853 34.2069 24.8229C34.0287 24.4493 33.6657 24.2771 33.2923 24.389C33.0427 24.4637 32.9243 24.5946 32.4319 25.3392C32.1179 25.8142 31.8359 26.2183 31.8054 26.2371C31.7748 26.256 31.4927 25.8826 31.1786 25.4074C30.4752 24.3437 30.1939 24.1623 29.6798 24.4413Z" fill="#003154"/>
</svg>
