<svg width="40" height="41" viewBox="0 0 40 41" fill="none" xmlns="http://www.w3.org/2000/svg">
<path fill-rule="evenodd" clip-rule="evenodd" d="M24.3909 0.116651C22.7898 0.504052 21.5113 1.81795 21.1704 3.42638C21.0798 3.85368 21.0607 5.73749 21.0595 14.364L21.0582 24.7854L20.5937 25.1008C19.0469 26.1513 17.8928 27.7849 17.4063 29.6125C17.1386 30.618 17.1031 32.3468 17.3285 33.3967C18.0024 36.5354 20.294 38.9916 23.2878 39.7841C23.9681 39.9643 24.2333 39.9923 25.3218 39.9993C26.2875 40.0054 26.7147 39.9741 27.1917 39.8624C28.8549 39.4725 30.0591 38.7875 31.2464 37.5558C33.9435 34.758 34.3946 30.4036 32.3101 27.2872C31.7583 26.4624 31.0802 25.7544 30.2619 25.1493L29.6658 24.7085L29.6452 14.0126L29.6245 3.31678L29.4486 2.85044C28.6729 0.793977 26.4832 -0.389583 24.3909 0.116651ZM26.141 1.68049C26.9605 1.92387 27.6514 2.55653 27.94 3.32773C28.097 3.74744 28.0991 3.89131 28.1034 14.4873C28.1067 22.5919 28.1307 25.2874 28.2012 25.4903C28.275 25.7027 28.4176 25.8328 28.8813 26.1105C29.5872 26.5333 30.7637 27.6896 31.1387 28.329C31.7536 29.3778 32.03 30.416 32.0297 31.6756C32.0293 33.4659 31.4004 35.1017 30.22 36.3824C29.0346 37.6685 27.542 38.3616 25.7521 38.457C21.5357 38.6819 18.1263 34.8991 18.794 30.7368C18.9116 30.0037 19.2666 29.0261 19.6491 28.3823C20.0954 27.6311 20.9457 26.7536 21.7385 26.2261C22.0971 25.9875 22.4427 25.7177 22.5066 25.6264C22.608 25.4816 22.6228 24.094 22.6228 14.7281C22.6228 4.50926 22.6297 3.97345 22.7674 3.53113C23.2239 2.06422 24.7023 1.25327 26.141 1.68049ZM9.98846 2.44826C8.11169 2.76321 6.59432 3.56837 5.28738 4.94282C2.23754 8.15014 2.23754 13.0344 5.28738 16.2418C7.00691 18.0501 9.35134 18.9793 11.7733 18.8124C15.3306 18.5675 18.3069 16.0917 19.2375 12.6033C19.4154 11.9366 19.44 11.6913 19.44 10.5923C19.44 9.49329 19.4154 9.24796 19.2375 8.58127C18.2808 4.99531 15.2043 2.51154 11.5531 2.37761C10.9677 2.35618 10.3788 2.38278 9.98846 2.44826ZM12.8439 4.1048C13.4525 4.25978 14.4867 4.72776 15.0088 5.08449C16.2867 5.95771 17.2961 7.39067 17.7068 8.91454C17.9368 9.76781 17.9573 11.3342 17.7488 12.1178C17.1937 14.2042 15.9002 15.7695 14.0052 16.6482C12.9813 17.123 12.4261 17.2383 11.201 17.2307C10.2968 17.225 10.046 17.1943 9.45672 17.0172C7.50665 16.4308 6.0564 15.2068 5.21971 13.4408C4.75909 12.4686 4.60638 11.7592 4.60638 10.5923C4.60638 9.7944 4.64284 9.44041 4.77567 8.94943C5.48922 6.31241 7.60358 4.40482 10.2869 3.97697C10.8682 3.88435 12.2489 3.95335 12.8439 4.1048ZM31.68 4.02328C31.2332 4.27034 31.1621 4.86646 31.5351 5.23947L31.7638 5.46814H33.5731C35.5677 5.46814 35.7419 5.43395 35.9184 5.00759C36.0436 4.70538 35.9648 4.36203 35.7164 4.12851C35.5213 3.94513 35.4945 3.94239 33.7059 3.92401C32.2122 3.90868 31.8557 3.9262 31.68 4.02328ZM9.19277 5.5822C8.89377 5.71222 8.77587 5.91124 8.77587 6.28612C8.77587 6.51323 8.94086 6.81364 9.64072 7.86061C10.4404 9.057 10.5037 9.17904 10.4817 9.48218C10.4583 9.80403 10.4522 9.81036 10.1449 9.83297C9.86196 9.8537 9.70808 9.77446 8.53797 9.00536C7.82622 8.53754 7.16063 8.13301 7.05877 8.10641C6.53345 7.96896 6.01673 8.56813 6.19495 9.10816C6.26426 9.31805 6.44959 9.48398 7.11807 9.93444C7.57807 10.2445 7.98488 10.5252 8.02204 10.5581C8.05927 10.591 7.68259 10.888 7.18496 11.218C6.45303 11.7033 6.26387 11.8677 6.19432 12.0785C6.00617 12.6484 6.54464 13.2253 7.11275 13.0624C7.2409 13.0257 7.87786 12.6397 8.52827 12.2046C9.63556 11.4641 9.73593 11.4137 10.1039 11.4137H10.497V11.7284C10.497 11.9986 10.3756 12.2245 9.63642 13.3304C8.9181 14.405 8.77587 14.6669 8.77587 14.915C8.77587 15.4777 9.22695 15.8121 9.75212 15.6387C9.98603 15.5615 10.1272 15.4052 10.5884 14.7119C10.8937 14.2533 11.1672 13.8512 11.1965 13.8185C11.2258 13.7858 11.5225 14.1634 11.8558 14.6577C12.3823 15.4383 12.5009 15.5681 12.7576 15.645C13.1503 15.7627 13.5129 15.5846 13.6761 15.1941C13.8348 14.8145 13.7825 14.6947 12.851 13.3019C12.1409 12.2401 12.0616 12.086 12.0616 11.7676V11.4137H12.4336C12.7751 11.4137 12.9047 11.4798 14.0178 12.2217C14.6844 12.6661 15.3147 13.0515 15.4183 13.0782C15.6921 13.1486 16.1004 12.9488 16.2418 12.6754C16.5133 12.1503 16.3449 11.8904 15.2744 11.1825C14.7982 10.8677 14.4085 10.6021 14.4085 10.5923C14.4085 10.5825 14.7982 10.3169 15.2744 10.002C16.3449 9.29419 16.5133 9.03431 16.2418 8.50914C16.1002 8.23533 15.6915 8.03584 15.4183 8.10711C15.3147 8.1341 14.6557 8.53707 13.9538 9.00263C12.8728 9.71961 12.6305 9.84909 12.3696 9.84909H12.0616V9.45605C12.0616 9.08813 12.112 8.98768 12.851 7.88267C13.7825 6.48992 13.8348 6.37007 13.6761 5.99049C13.5137 5.60168 13.15 5.42198 12.7613 5.53847C12.5095 5.61388 12.3859 5.7493 11.8598 6.52598C11.5245 7.02103 11.2261 7.3992 11.1967 7.36634C11.1674 7.33348 10.8943 6.93224 10.5899 6.47482C10.1624 5.83238 9.9793 5.62311 9.7856 5.5556C9.48175 5.4496 9.49928 5.44881 9.19277 5.5822ZM31.7442 7.15222C31.4234 7.31956 31.3118 7.49597 31.309 7.84066C31.3071 8.06925 31.3605 8.19411 31.5351 8.36872L31.7638 8.59739H32.8287C34.0456 8.59739 34.2213 8.53527 34.3656 8.05384C34.4804 7.67035 34.3017 7.30157 33.9246 7.14393C33.5483 6.98676 32.0505 6.99247 31.7442 7.15222ZM24.9428 9.54657C24.5729 9.76155 24.5786 9.62261 24.5786 18.4544C24.5786 25.0264 24.5582 26.7574 24.4808 26.7779C23.2465 27.1065 22.5249 27.4893 21.8008 28.1997C21.2346 28.7553 20.8179 29.4304 20.5293 30.2599C20.3496 30.7763 20.3227 30.9773 20.3243 31.793C20.3258 32.5972 20.356 32.8223 20.5348 33.3637C21.1844 35.3303 22.9454 36.7121 25.0224 36.8853C27.0162 37.0516 29.0425 35.888 29.9399 34.0617C30.3143 33.2996 30.4516 32.7017 30.4541 31.8239C30.4581 30.3569 30.0098 29.2773 28.9624 28.232C28.1444 27.4158 27.4537 27.0337 26.3583 26.7916L26.1432 26.7441V18.3417V9.93929L25.9407 9.69865C25.7733 9.49971 25.6816 9.45832 25.4126 9.46028C25.2335 9.46161 25.0222 9.50041 24.9428 9.54657ZM31.509 10.481C31.2171 10.8279 31.2314 11.2342 31.5462 11.536L31.7858 11.7658L33.4433 11.7902C35.3775 11.8187 35.6406 11.769 35.8757 11.3305C36.0534 10.9989 36.0053 10.7074 35.7269 10.4291L35.5381 10.2402H33.6248H31.7116L31.509 10.481ZM31.5351 13.5982C31.1244 14.009 31.2728 14.6497 31.8276 14.8607C32.1353 14.9777 33.6181 14.951 33.9246 14.823C34.3017 14.6653 34.4804 14.2965 34.3656 13.913C34.2213 13.4316 34.0456 13.3695 32.8287 13.3695H31.7638L31.5351 13.5982ZM31.5351 16.7274C31.275 16.9875 31.223 17.44 31.4207 17.7223C31.6423 18.0386 31.8894 18.0731 33.752 18.048C35.4886 18.0246 35.522 18.0211 35.7164 17.8384C35.825 17.7362 35.9359 17.553 35.9626 17.4313C36.0259 17.1432 35.8176 16.704 35.5626 16.5879C35.4345 16.5294 34.7461 16.4987 33.5655 16.4987H31.7638L31.5351 16.7274ZM26.3375 28.4041C26.8755 28.5421 27.4099 28.8617 27.8656 29.3182C29.8996 31.3558 28.7744 34.799 25.9141 35.2895C24.8605 35.4701 23.6856 35.082 22.8958 34.2921C21.5757 32.972 21.5126 30.8059 22.7556 29.4765C23.7492 28.414 24.9611 28.0511 26.3375 28.4041Z" fill="#003154"/>
</svg>
